<?xml version="1.0" encoding="UTF-8" standalone="no"?>
<!DOCTYPE svg PUBLIC "-//W3C//DTD SVG 1.1//EN" "http://www.w3.org/Graphics/SVG/1.1/DTD/svg11.dtd">
<svg xmlns="http://www.w3.org/2000/svg" version="1.1" viewBox="0.00 0.00 1024.00 1024.00">
<g stroke-width="2.00" fill="none" stroke-linecap="butt">
<path stroke="#d38864" vector-effect="non-scaling-stroke" d="
  M 451.13 536.30
  L 433.21 601.45"
/>
<path stroke="#cd511d" vector-effect="non-scaling-stroke" d="
  M 433.21 601.45
  L 425.52 629.75"
/>
<path stroke="#d17a5c" vector-effect="non-scaling-stroke" d="
  M 425.52 629.75
  L 425.06 631.51"
/>
<path stroke="#d06843" vector-effect="non-scaling-stroke" d="
  M 425.06 631.51
  L 423.40 637.46"
/>
<path stroke="#d17a5c" vector-effect="non-scaling-stroke" d="
  M 423.40 637.46
  L 417.81 657.83
  A 0.38 0.37 -82.3 0 0 418.17 658.31
  Q 471.29 658.46 500.25 658.38
  Q 502.99 658.37 504.29 657.24
  Q 507.96 654.06 511.87 650.57
  A 0.75 0.75 0.0 0 1 512.88 650.58
  C 514.91 652.50 520.24 658.13 523.25 658.17
  Q 564.14 658.70 605.87 658.70
  A 0.89 0.88 82.6 0 0 606.72 657.59
  L 602.94 643.63"
/>
<path stroke="#d06843" vector-effect="non-scaling-stroke" d="
  M 602.94 643.63
  L 602.33 641.03"
/>
<path stroke="#d17a5c" vector-effect="non-scaling-stroke" d="
  M 602.33 641.03
  Q 602.10 640.06 601.54 639.16"
/>
<path stroke="#d06843" vector-effect="non-scaling-stroke" d="
  M 601.54 639.16
  Q 601.63 638.18 601.26 637.86"
/>
<path stroke="#d17a5c" vector-effect="non-scaling-stroke" d="
  M 601.26 637.86
  L 600.84 635.97"
/>
<path stroke="#d06843" vector-effect="non-scaling-stroke" d="
  M 600.84 635.97
  L 597.02 622.27
  L 594.11 611.45"
/>
<path stroke="#d38864" vector-effect="non-scaling-stroke" d="
  M 594.11 611.45
  L 574.57 539.43"
/>
<path stroke="#d06843" vector-effect="non-scaling-stroke" d="
  M 574.57 539.43
  Q 569.25 519.64 563.85 501.14
  Q 563.25 499.10 563.37 497.41
  A 3.01 3.00 74.6 0 1 564.64 495.16
  C 579.95 484.50 591.82 471.09 599.22 454.20
  C 609.36 431.10 609.83 404.03 600.75 380.77
  Q 589.06 350.82 560.42 333.89
  C 541.23 322.54 518.05 319.32 496.21 322.73
  C 463.52 327.84 435.69 350.81 423.90 381.28
  Q 414.39 405.89 418.68 431.93
  C 422.86 457.30 437.31 478.69 458.44 493.57
  C 461.49 495.72 462.21 496.50 461.12 500.34
  Q 456.02 518.22 451.13 536.30"
/>
<path stroke="#f7ba8c" vector-effect="non-scaling-stroke" d="
  M 574.57 539.43
  Q 551.80 540.15 532.63 551.44
  Q 523.24 556.97 515.95 565.96
  Q 513.99 568.37 513.19 570.80"
/>
<path stroke="#f5ad83" vector-effect="non-scaling-stroke" d="
  M 513.19 570.80
  Q 512.99 571.07 512.19 570.97"
/>
<path stroke="#f7ba8c" vector-effect="non-scaling-stroke" d="
  M 512.19 570.97
  C 511.79 563.99 500.17 554.77 494.48 551.23
  Q 480.86 542.75 465.14 539.24
  Q 458.40 537.73 451.13 536.30"
/>
<path stroke="#f5ad83" vector-effect="non-scaling-stroke" d="
  M 513.91 648.00
  L 513.89 648.45
  A 0.75 0.75 0.0 0 0 515.03 649.13
  Q 520.63 645.71 527.50 643.00
  Q 530.24 641.92 540.61 639.24
  Q 547.51 637.46 554.00 636.79
  C 566.18 635.54 576.09 634.73 587.94 635.35
  Q 594.35 635.69 600.84 635.97"
/>
<path stroke="#f5ad83" vector-effect="non-scaling-stroke" d="
  M 601.26 637.86
  C 590.98 637.02 580.38 636.34 570.18 637.11
  A 0.13 0.13 0.0 0 0 570.06 637.24
  L 570.06 637.51
  A 0.33 0.32 0.0 0 0 570.39 637.83
  C 575.04 637.77 579.18 637.54 584.19 638.04
  Q 592.84 638.91 601.54 639.16"
/>
<path stroke="#f5ad83" vector-effect="non-scaling-stroke" d="
  M 602.33 641.03
  Q 602.34 641.74 602.07 642.10
  A 0.14 0.12 23.6 0 1 601.92 642.15
  Q 601.82 642.11 601.78 641.95
  Q 601.76 641.85 601.51 641.82
  Q 579.13 638.31 557.51 639.85
  A 2.37 2.35 -38.1 0 1 556.65 639.75
  Q 555.10 639.23 552.27 639.57
  Q 536.61 641.44 525.67 645.67
  A 0.34 0.33 -19.9 0 0 525.47 646.08
  L 525.48 646.10
  A 0.42 0.41 -16.6 0 0 525.99 646.37
  Q 534.12 644.03 543.53 643.13
  Q 573.83 640.25 602.94 643.63"
/>
<path stroke="#f5ad83" vector-effect="non-scaling-stroke" d="
  M 423.40 637.46
  Q 440.27 635.97 456.50 636.26
  Q 484.62 636.77 510.21 647.53"
/>
<path stroke="#f8cda5" vector-effect="non-scaling-stroke" d="
  M 512.19 570.97
  L 512.31 647.60
  A 0.44 0.44 0.0 0 1 512.17 647.92
  Q 511.40 648.69 510.21 647.53"
/>
<path stroke="#f7ba8c" vector-effect="non-scaling-stroke" d="
  M 510.21 647.53
  L 505.98 642.27"
/>
<path stroke="#f5a366" vector-effect="non-scaling-stroke" d="
  M 505.98 642.27
  Q 498.41 632.77 489.37 626.13
  Q 471.76 613.21 450.07 606.20
  Q 441.89 603.55 433.21 601.45"
/>
<path stroke="#f7ba8c" vector-effect="non-scaling-stroke" d="
  M 594.11 611.45
  Q 587.76 612.74 581.34 613.66
  Q 574.09 614.70 569.99 615.62
  Q 563.41 617.10 558.91 618.76
  Q 558.07 619.07 553.11 620.90
  C 542.45 624.83 532.80 630.74 524.20 638.42
  Q 523.63 638.93 515.17 647.40
  Q 514.74 647.84 513.91 648.00"
/>
<path stroke="#f8cda5" vector-effect="non-scaling-stroke" d="
  M 513.91 648.00
  Q 513.48 644.65 513.49 641.25
  Q 513.55 606.01 513.19 570.80"
/>
<path stroke="#f5ad83" vector-effect="non-scaling-stroke" d="
  M 597.02 622.27
  L 596.19 621.74
  A 1.77 1.77 0.0 0 0 595.29 621.45
  Q 585.32 620.94 574.01 621.53
  Q 557.86 622.39 543.33 628.34
  Q 533.32 632.44 521.14 642.89
  A 0.59 0.57 49.1 0 0 521.09 643.72
  L 521.11 643.74
  A 0.55 0.55 0.0 0 0 521.86 643.79
  Q 529.40 637.47 535.09 634.10
  Q 547.71 626.62 563.01 624.54
  Q 578.19 622.47 596.00 623.45
  Q 597.11 623.51 597.02 622.27"
/>
<path stroke="#f28345" vector-effect="non-scaling-stroke" d="
  M 505.98 642.27
  Q 505.82 642.88 505.46 643.37"
/>
<path stroke="#f3965e" vector-effect="non-scaling-stroke" d="
  M 505.46 643.37
  Q 504.60 642.37 503.39 641.60
  Q 497.18 637.64 490.22 635.24
  C 469.35 628.03 447.33 626.73 425.52 629.75"
/>
<path stroke="#f5ad83" vector-effect="non-scaling-stroke" d="
  M 505.46 643.37
  Q 505.63 643.56 505.64 643.66
  A 0.25 0.25 0.0 0 1 505.27 643.90
  Q 481.80 631.07 455.00 630.15
  Q 437.71 629.56 425.06 631.51"
/>
<path stroke="#cd511d" vector-effect="non-scaling-stroke" d="
  M 413.74 674.50
  L 406.70 699.88
  A 0.95 0.95 0.0 0 0 407.62 701.08
  L 616.89 701.08
  A 0.94 0.94 0.0 0 0 617.80 699.90
  L 611.09 674.30"
/>
<path stroke="#bf431d" vector-effect="non-scaling-stroke" d="
  M 611.09 674.30
  Q 610.76 670.77 609.44 667.97
  A 1.74 1.73 -12.6 0 0 607.87 666.98
  L 530.17 666.98
  A 3.11 3.08 20.5 0 0 527.85 668.02
  C 523.21 673.21 516.56 673.61 510.00 673.32
  C 504.16 673.07 499.81 672.99 496.75 668.28
  A 2.97 2.97 0.0 0 0 494.26 666.93
  L 416.34 666.93
  A 1.20 1.20 0.0 0 0 415.17 667.87
  L 413.74 674.50"
/>
<path stroke="#e15f1f" vector-effect="non-scaling-stroke" d="
  M 611.09 674.30
  Q 583.15 676.74 555.21 676.33
  A 11.88 11.86 36.3 0 0 551.33 676.92
  Q 544.39 679.19 536.00 680.00
  Q 509.17 682.59 484.38 679.90
  Q 478.33 679.24 472.55 676.87
  A 8.36 8.35 55.7 0 0 469.22 676.24
  Q 441.91 676.55 413.74 674.50"
/>
<path stroke="#f5ad83" vector-effect="non-scaling-stroke" d="
  M 491.28 642.95
  A 0.53 0.53 0.0 0 0 490.87 642.34
  Q 457.93 635.16 424.55 640.06
  A 1.18 1.17 2.1 0 0 423.58 640.95
  L 423.54 641.10
  A 0.55 0.54 -87.4 0 0 424.14 641.76
  Q 457.50 637.79 490.60 643.45
  A 0.59 0.59 0.0 0 0 491.28 642.98
  L 491.28 642.95"
/>
<path stroke="#f5ad83" vector-effect="non-scaling-stroke" d="
  M 460.53 645.82
  Q 470.43 645.96 488.81 646.78
  A 0.23 0.23 0.0 0 0 488.96 646.37
  Q 488.53 646.05 487.79 645.95
  Q 473.01 644.08 460.56 643.92
  Q 448.10 643.75 433.28 645.23
  Q 432.54 645.31 432.10 645.62
  A 0.23 0.23 0.0 0 0 432.23 646.03
  Q 450.63 645.69 460.53 645.82"
/>
<path stroke="#f5ad83" vector-effect="non-scaling-stroke" d="
  M 593.90 645.63
  A 0.24 0.23 1.3 0 0 593.67 645.40
  Q 570.29 643.91 546.18 645.00
  Q 540.43 645.26 530.60 647.23
  A 0.21 0.21 0.0 0 0 530.43 647.44
  L 530.43 647.75
  A 0.37 0.37 0.0 0 0 530.84 648.12
  Q 560.67 644.88 590.83 646.37
  A 4.50 4.13 37.4 0 0 592.04 646.26
  Q 592.96 646.04 593.57 646.21
  A 0.27 0.27 0.0 0 0 593.90 645.95
  L 593.90 645.63"
/>
<path stroke="#f5ad83" vector-effect="non-scaling-stroke" d="
  M 529.00 651.10
  L 529.06 652.28
  A 0.20 0.20 0.0 0 0 529.27 652.47
  L 536.01 652.12
  A 25.29 0.62 -3.0 0 0 561.24 650.18
  L 561.22 649.84
  A 25.29 0.62 -3.0 0 0 535.93 650.54
  L 529.19 650.89
  A 0.20 0.20 0.0 0 0 529.00 651.10"
/>
<path stroke="#f5ad83" vector-effect="non-scaling-stroke" d="
  M 432.44 653.19
  L 479.98 653.19
  A 0.22 0.22 0.0 0 0 480.20 652.97
  L 480.20 652.39
  A 23.60 0.52 0.0 0 0 456.60 651.87
  L 455.82 651.87
  A 23.60 0.52 0.0 0 0 432.22 652.39
  L 432.22 652.97
  A 0.22 0.22 0.0 0 0 432.44 653.19"
/>
</g>
<path fill="#ab351b" d="
  M 1024.00 0.00
  L 1024.00 1024.00
  L 0.00 1024.00
  L 0.00 0.00
  L 1024.00 0.00
  Z
  M 451.13 536.30
  L 433.21 601.45
  L 425.52 629.75
  L 425.06 631.51
  L 423.40 637.46
  L 417.81 657.83
  A 0.38 0.37 -82.3 0 0 418.17 658.31
  Q 471.29 658.46 500.25 658.38
  Q 502.99 658.37 504.29 657.24
  Q 507.96 654.06 511.87 650.57
  A 0.75 0.75 0.0 0 1 512.88 650.58
  C 514.91 652.50 520.24 658.13 523.25 658.17
  Q 564.14 658.70 605.87 658.70
  A 0.89 0.88 82.6 0 0 606.72 657.59
  L 602.94 643.63
  L 602.33 641.03
  Q 602.10 640.06 601.54 639.16
  Q 601.63 638.18 601.26 637.86
  L 600.84 635.97
  L 597.02 622.27
  L 594.11 611.45
  L 574.57 539.43
  Q 569.25 519.64 563.85 501.14
  Q 563.25 499.10 563.37 497.41
  A 3.01 3.00 74.6 0 1 564.64 495.16
  C 579.95 484.50 591.82 471.09 599.22 454.20
  C 609.36 431.10 609.83 404.03 600.75 380.77
  Q 589.06 350.82 560.42 333.89
  C 541.23 322.54 518.05 319.32 496.21 322.73
  C 463.52 327.84 435.69 350.81 423.90 381.28
  Q 414.39 405.89 418.68 431.93
  C 422.86 457.30 437.31 478.69 458.44 493.57
  C 461.49 495.72 462.21 496.50 461.12 500.34
  Q 456.02 518.22 451.13 536.30
  Z
  M 413.74 674.50
  L 406.70 699.88
  A 0.95 0.95 0.0 0 0 407.62 701.08
  L 616.89 701.08
  A 0.94 0.94 0.0 0 0 617.80 699.90
  L 611.09 674.30
  Q 610.76 670.77 609.44 667.97
  A 1.74 1.73 -12.6 0 0 607.87 666.98
  L 530.17 666.98
  A 3.11 3.08 20.5 0 0 527.85 668.02
  C 523.21 673.21 516.56 673.61 510.00 673.32
  C 504.16 673.07 499.81 672.99 496.75 668.28
  A 2.97 2.97 0.0 0 0 494.26 666.93
  L 416.34 666.93
  A 1.20 1.20 0.0 0 0 415.17 667.87
  L 413.74 674.50
  Z"
/>
<path fill="#f49a6a" d="
  M 574.57 539.43
  Q 551.80 540.15 532.63 551.44
  Q 523.24 556.97 515.95 565.96
  Q 513.99 568.37 513.19 570.80
  Q 512.99 571.07 512.19 570.97
  C 511.79 563.99 500.17 554.77 494.48 551.23
  Q 480.86 542.75 465.14 539.24
  Q 458.40 537.73 451.13 536.30
  Q 456.02 518.22 461.12 500.34
  C 462.21 496.50 461.49 495.72 458.44 493.57
  C 437.31 478.69 422.86 457.30 418.68 431.93
  Q 414.39 405.89 423.90 381.28
  C 435.69 350.81 463.52 327.84 496.21 322.73
  C 518.05 319.32 541.23 322.54 560.42 333.89
  Q 589.06 350.82 600.75 380.77
  C 609.83 404.03 609.36 431.10 599.22 454.20
  C 591.82 471.09 579.95 484.50 564.64 495.16
  A 3.01 3.00 74.6 0 0 563.37 497.41
  Q 563.25 499.10 563.85 501.14
  Q 569.25 519.64 574.57 539.43
  Z"
/>
<path fill="#fadaad" d="
  M 512.19 570.97
  L 512.31 647.60
  A 0.44 0.44 0.0 0 1 512.17 647.92
  Q 511.40 648.69 510.21 647.53
  L 505.98 642.27
  Q 498.41 632.77 489.37 626.13
  Q 471.76 613.21 450.07 606.20
  Q 441.89 603.55 433.21 601.45
  L 451.13 536.30
  Q 458.40 537.73 465.14 539.24
  Q 480.86 542.75 494.48 551.23
  C 500.17 554.77 511.79 563.99 512.19 570.97
  Z"
/>
<path fill="#fadaad" d="
  M 574.57 539.43
  L 594.11 611.45
  Q 587.76 612.74 581.34 613.66
  Q 574.09 614.70 569.99 615.62
  Q 563.41 617.10 558.91 618.76
  Q 558.07 619.07 553.11 620.90
  C 542.45 624.83 532.80 630.74 524.20 638.42
  Q 523.63 638.93 515.17 647.40
  Q 514.74 647.84 513.91 648.00
  Q 513.48 644.65 513.49 641.25
  Q 513.55 606.01 513.19 570.80
  Q 513.99 568.37 515.95 565.96
  Q 523.24 556.97 532.63 551.44
  Q 551.80 540.15 574.57 539.43
  Z"
/>
<path fill="#f6bf9c" d="
  M 513.19 570.80
  Q 513.55 606.01 513.49 641.25
  Q 513.48 644.65 513.91 648.00
  L 513.89 648.45
  A 0.75 0.75 0.0 0 0 515.03 649.13
  Q 520.63 645.71 527.50 643.00
  Q 530.24 641.92 540.61 639.24
  Q 547.51 637.46 554.00 636.79
  C 566.18 635.54 576.09 634.73 587.94 635.35
  Q 594.35 635.69 600.84 635.97
  L 601.26 637.86
  C 590.98 637.02 580.38 636.34 570.18 637.11
  A 0.13 0.13 0.0 0 0 570.06 637.24
  L 570.06 637.51
  A 0.33 0.32 0.0 0 0 570.39 637.83
  C 575.04 637.77 579.18 637.54 584.19 638.04
  Q 592.84 638.91 601.54 639.16
  Q 602.10 640.06 602.33 641.03
  Q 602.34 641.74 602.07 642.10
  A 0.14 0.12 23.6 0 1 601.92 642.15
  Q 601.82 642.11 601.78 641.95
  Q 601.76 641.85 601.51 641.82
  Q 579.13 638.31 557.51 639.85
  A 2.37 2.35 -38.1 0 1 556.65 639.75
  Q 555.10 639.23 552.27 639.57
  Q 536.61 641.44 525.67 645.67
  A 0.34 0.33 -19.9 0 0 525.47 646.08
  L 525.48 646.10
  A 0.42 0.41 -16.6 0 0 525.99 646.37
  Q 534.12 644.03 543.53 643.13
  Q 573.83 640.25 602.94 643.63
  L 606.72 657.59
  A 0.89 0.88 82.6 0 1 605.87 658.70
  Q 564.14 658.70 523.25 658.17
  C 520.24 658.13 514.91 652.50 512.88 650.58
  A 0.75 0.75 0.0 0 0 511.87 650.57
  Q 507.96 654.06 504.29 657.24
  Q 502.99 658.37 500.25 658.38
  Q 471.29 658.46 418.17 658.31
  A 0.38 0.37 -82.3 0 1 417.81 657.83
  L 423.40 637.46
  Q 440.27 635.97 456.50 636.26
  Q 484.62 636.77 510.21 647.53
  Q 511.40 648.69 512.17 647.92
  A 0.44 0.44 0.0 0 0 512.31 647.60
  L 512.19 570.97
  Q 512.99 571.07 513.19 570.80
  Z
  M 491.28 642.95
  A 0.53 0.53 0.0 0 0 490.87 642.34
  Q 457.93 635.16 424.55 640.06
  A 1.18 1.17 2.1 0 0 423.58 640.95
  L 423.54 641.10
  A 0.55 0.54 -87.4 0 0 424.14 641.76
  Q 457.50 637.79 490.60 643.45
  A 0.59 0.59 0.0 0 0 491.28 642.98
  L 491.28 642.95
  Z
  M 460.53 645.82
  Q 470.43 645.96 488.81 646.78
  A 0.23 0.23 0.0 0 0 488.96 646.37
  Q 488.53 646.05 487.79 645.95
  Q 473.01 644.08 460.56 643.92
  Q 448.10 643.75 433.28 645.23
  Q 432.54 645.31 432.10 645.62
  A 0.23 0.23 0.0 0 0 432.23 646.03
  Q 450.63 645.69 460.53 645.82
  Z
  M 593.90 645.63
  A 0.24 0.23 1.3 0 0 593.67 645.40
  Q 570.29 643.91 546.18 645.00
  Q 540.43 645.26 530.60 647.23
  A 0.21 0.21 0.0 0 0 530.43 647.44
  L 530.43 647.75
  A 0.37 0.37 0.0 0 0 530.84 648.12
  Q 560.67 644.88 590.83 646.37
  A 4.50 4.13 37.4 0 0 592.04 646.26
  Q 592.96 646.04 593.57 646.21
  A 0.27 0.27 0.0 0 0 593.90 645.95
  L 593.90 645.63
  Z
  M 529.00 651.10
  L 529.06 652.28
  A 0.20 0.20 0.0 0 0 529.27 652.47
  L 536.01 652.12
  A 25.29 0.62 -3.0 0 0 561.24 650.18
  L 561.22 649.84
  A 25.29 0.62 -3.0 0 0 535.93 650.54
  L 529.19 650.89
  A 0.20 0.20 0.0 0 0 529.00 651.10
  Z
  M 432.44 653.19
  L 479.98 653.19
  A 0.22 0.22 0.0 0 0 480.20 652.97
  L 480.20 652.39
  A 23.60 0.52 0.0 0 0 456.60 651.87
  L 455.82 651.87
  A 23.60 0.52 0.0 0 0 432.22 652.39
  L 432.22 652.97
  A 0.22 0.22 0.0 0 0 432.44 653.19
  Z"
/>
<path fill="#ef6c1f" d="
  M 433.21 601.45
  Q 441.89 603.55 450.07 606.20
  Q 471.76 613.21 489.37 626.13
  Q 498.41 632.77 505.98 642.27
  Q 505.82 642.88 505.46 643.37
  Q 504.60 642.37 503.39 641.60
  Q 497.18 637.64 490.22 635.24
  C 469.35 628.03 447.33 626.73 425.52 629.75
  L 433.21 601.45
  Z"
/>
<path fill="#f49a6a" d="
  M 597.02 622.27
  L 596.19 621.74
  A 1.77 1.77 0.0 0 0 595.29 621.45
  Q 585.32 620.94 574.01 621.53
  Q 557.86 622.39 543.33 628.34
  Q 533.32 632.44 521.14 642.89
  A 0.59 0.57 49.1 0 0 521.09 643.72
  L 521.11 643.74
  A 0.55 0.55 0.0 0 0 521.86 643.79
  Q 529.40 637.47 535.09 634.10
  Q 547.71 626.62 563.01 624.54
  Q 578.19 622.47 596.00 623.45
  Q 597.11 623.51 597.02 622.27
  L 600.84 635.97
  Q 594.35 635.69 587.94 635.35
  C 576.09 634.73 566.18 635.54 554.00 636.79
  Q 547.51 637.46 540.61 639.24
  Q 530.24 641.92 527.50 643.00
  Q 520.63 645.71 515.03 649.13
  A 0.75 0.75 0.0 0 1 513.89 648.45
  L 513.91 648.00
  Q 514.74 647.84 515.17 647.40
  Q 523.63 638.93 524.20 638.42
  C 532.80 630.74 542.45 624.83 553.11 620.90
  Q 558.07 619.07 558.91 618.76
  Q 563.41 617.10 569.99 615.62
  Q 574.09 614.70 581.34 613.66
  Q 587.76 612.74 594.11 611.45
  L 597.02 622.27
  Z"
/>
<path fill="#f6bf9c" d="
  M 597.02 622.27
  Q 597.11 623.51 596.00 623.45
  Q 578.19 622.47 563.01 624.54
  Q 547.71 626.62 535.09 634.10
  Q 529.40 637.47 521.86 643.79
  A 0.55 0.55 0.0 0 1 521.11 643.74
  L 521.09 643.72
  A 0.59 0.57 49.1 0 1 521.14 642.89
  Q 533.32 632.44 543.33 628.34
  Q 557.86 622.39 574.01 621.53
  Q 585.32 620.94 595.29 621.45
  A 1.77 1.77 0.0 0 1 596.19 621.74
  L 597.02 622.27
  Z"
/>
<path fill="#f6bf9c" d="
  M 505.46 643.37
  Q 505.63 643.56 505.64 643.66
  A 0.25 0.25 0.0 0 1 505.27 643.90
  Q 481.80 631.07 455.00 630.15
  Q 437.71 629.56 425.06 631.51
  L 425.52 629.75
  C 447.33 626.73 469.35 628.03 490.22 635.24
  Q 497.18 637.64 503.39 641.60
  Q 504.60 642.37 505.46 643.37
  Z"
/>
<path fill="#f49a6a" d="
  M 505.46 643.37
  Q 505.82 642.88 505.98 642.27
  L 510.21 647.53
  Q 484.62 636.77 456.50 636.26
  Q 440.27 635.97 423.40 637.46
  L 425.06 631.51
  Q 437.71 629.56 455.00 630.15
  Q 481.80 631.07 505.27 643.90
  A 0.25 0.25 0.0 0 0 505.64 643.66
  Q 505.63 643.56 505.46 643.37
  Z"
/>
<path fill="#f49a6a" d="
  M 601.26 637.86
  Q 601.63 638.18 601.54 639.16
  Q 592.84 638.91 584.19 638.04
  C 579.18 637.54 575.04 637.77 570.39 637.83
  A 0.33 0.32 0.0 0 1 570.06 637.51
  L 570.06 637.24
  A 0.13 0.13 0.0 0 1 570.18 637.11
  C 580.38 636.34 590.98 637.02 601.26 637.86
  Z"
/>
<path fill="#f49a6a" d="
  M 491.28 642.95
  L 491.28 642.98
  A 0.59 0.59 0.0 0 1 490.60 643.45
  Q 457.50 637.79 424.14 641.76
  A 0.55 0.54 -87.4 0 1 423.54 641.10
  L 423.58 640.95
  A 1.18 1.17 2.1 0 1 424.55 640.06
  Q 457.93 635.16 490.87 642.34
  A 0.53 0.53 0.0 0 1 491.28 642.95
  Z"
/>
<path fill="#f49a6a" d="
  M 602.33 641.03
  L 602.94 643.63
  Q 573.83 640.25 543.53 643.13
  Q 534.12 644.03 525.99 646.37
  A 0.42 0.41 -16.6 0 1 525.48 646.10
  L 525.47 646.08
  A 0.34 0.33 -19.9 0 1 525.67 645.67
  Q 536.61 641.44 552.27 639.57
  Q 555.10 639.23 556.65 639.75
  A 2.37 2.35 -38.1 0 0 557.51 639.85
  Q 579.13 638.31 601.51 641.82
  Q 601.76 641.85 601.78 641.95
  Q 601.82 642.11 601.92 642.15
  A 0.14 0.12 23.6 0 0 602.07 642.10
  Q 602.34 641.74 602.33 641.03
  Z"
/>
<path fill="#f49a6a" d="
  M 460.56 643.92
  Q 473.01 644.08 487.79 645.95
  Q 488.53 646.05 488.96 646.37
  A 0.23 0.23 0.0 0 1 488.81 646.78
  Q 470.43 645.96 460.53 645.82
  Q 450.63 645.69 432.23 646.03
  A 0.23 0.23 0.0 0 1 432.10 645.62
  Q 432.54 645.31 433.28 645.23
  Q 448.10 643.75 460.56 643.92
  Z"
/>
<path fill="#f49a6a" d="
  M 593.57 646.21
  Q 592.96 646.04 592.04 646.26
  A 4.50 4.13 37.4 0 1 590.83 646.37
  Q 560.67 644.88 530.84 648.12
  A 0.37 0.37 0.0 0 1 530.43 647.75
  L 530.43 647.44
  A 0.21 0.21 0.0 0 1 530.60 647.23
  Q 540.43 645.26 546.18 645.00
  Q 570.29 643.91 593.67 645.40
  A 0.24 0.23 1.3 0 1 593.90 645.63
  L 593.90 645.95
  A 0.27 0.27 0.0 0 1 593.57 646.21
  Z"
/>
<path fill="#f49a6a" d="
  M 529.00 651.10
  A 0.20 0.20 0.0 0 1 529.19 650.89
  L 535.93 650.54
  A 25.29 0.62 -3.0 0 1 561.22 649.84
  L 561.24 650.18
  A 25.29 0.62 -3.0 0 1 536.01 652.12
  L 529.27 652.47
  A 0.20 0.20 0.0 0 1 529.06 652.28
  L 529.00 651.10
  Z"
/>
<path fill="#f49a6a" d="
  M 432.44 653.19
  A 0.22 0.22 0.0 0 1 432.22 652.97
  L 432.22 652.39
  A 23.60 0.52 0.0 0 1 455.82 651.87
  L 456.60 651.87
  A 23.60 0.52 -0.0 0 1 480.20 652.39
  L 480.20 652.97
  A 0.22 0.22 0.0 0 1 479.98 653.19
  L 432.44 653.19
  Z"
/>
<path fill="#d2511e" d="
  M 611.09 674.30
  Q 583.15 676.74 555.21 676.33
  A 11.88 11.86 36.3 0 0 551.33 676.92
  Q 544.39 679.19 536.00 680.00
  Q 509.17 682.59 484.38 679.90
  Q 478.33 679.24 472.55 676.87
  A 8.36 8.35 55.7 0 0 469.22 676.24
  Q 441.91 676.55 413.74 674.50
  L 415.17 667.87
  A 1.20 1.20 0.0 0 1 416.34 666.93
  L 494.26 666.93
  A 2.97 2.97 0.0 0 1 496.75 668.28
  C 499.81 672.99 504.16 673.07 510.00 673.32
  C 516.56 673.61 523.21 673.21 527.85 668.02
  A 3.11 3.08 20.5 0 1 530.17 666.98
  L 607.87 666.98
  A 1.74 1.73 -12.6 0 1 609.44 667.97
  Q 610.76 670.77 611.09 674.30
  Z"
/>
<path fill="#ef6c1f" d="
  M 611.09 674.30
  L 617.80 699.90
  A 0.94 0.94 0.0 0 1 616.89 701.08
  L 407.62 701.08
  A 0.95 0.95 0.0 0 1 406.70 699.88
  L 413.74 674.50
  Q 441.91 676.55 469.22 676.24
  A 8.36 8.35 55.7 0 1 472.55 676.87
  Q 478.33 679.24 484.38 679.90
  Q 509.17 682.59 536.00 680.00
  Q 544.39 679.19 551.33 676.92
  A 11.88 11.86 36.3 0 1 555.21 676.33
  Q 583.15 676.74 611.09 674.30
  Z"
/>
</svg>
